Coordinates
version=1
nRows=17
nColumns=24
inDegrees=yes

Units are S.I. units (second, meters, Newtons, ...)
Angles are in degrees.

endheader
time	pelvis_tilt	pelvis_list	pelvis_rotation	pelvis_tx	pelvis_ty	pelvis_tz	hip_flexion_r	hip_adduction_r	hip_rotation_r	knee_angle_r	ankle_angle_r	subtalar_angle_r	mtp_angle_r	hip_flexion_l	hip_adduction_l	hip_rotation_l	knee_angle_l	ankle_angle_l	subtalar_angle_l	mtp_angle_l	lumbar_extension	lumbar_bending	lumbar_rotation
      6.26500000	     12.45082157	     -6.06332621	      8.80335061	      2.46242854	      0.75434612	     -0.29374617	     -9.67636801	     11.10477222	     -4.80960258	     -9.05976839	     24.30524226	      5.68539848	      0.00000000	     14.43165779	     -3.06423618	      6.39355082	    -63.08432493	     25.77149620	      2.36222130	      0.00000000	    -31.35360391	     11.38874219	      3.17177655
      6.27000000	     12.51549347	     -6.03827737	      8.42254198	      2.46951154	      0.75424326	     -0.29363259	    -10.59751308	     11.08499447	     -4.55516328	     -8.63643100	     24.64933851	      6.17259824	      0.00000000	     15.01254494	     -2.96882310	      6.05526650	    -61.86212156	     26.06998049	      2.07298932	      0.00000000	    -31.52810924	     11.24147232	      3.76614301
      6.27500000	     12.58817150	     -6.00440663	      8.03423723	      2.47657893	      0.75407305	     -0.29353018	    -11.51959784	     11.03932167	     -4.31249749	     -8.23137541	     25.03273345	      6.70734994	      0.00000000	     15.54710543	     -2.87329093	      5.72571131	    -60.54759946	     26.27100400	      1.69352842	      0.00000000	    -31.72032512	     11.08579437	      4.35020078
      6.28000000	     12.63776274	     -6.00582220	      7.62998118	      2.48364536	      0.75379110	     -0.29341638	    -12.39108241	     11.01124738	     -4.10367142	     -7.87039291	     25.38332784	      7.21017737	      0.00000000	     16.08004983	     -2.84338772	      5.35067886	    -59.15156229	     26.44675967	      1.20155093	      0.00000000	    -31.88794869	     10.95716917	      4.96204727
      6.28500000	     12.72592019	     -5.95489144	      7.22116714	      2.49069761	      0.75349400	     -0.29329331	    -13.30814011	     10.91878687	     -3.89875507	     -7.51527958	     25.82963989	      7.79779427	      0.00000000	     16.51277781	     -2.76858774	      4.99735841	    -57.64100470	     26.51511951	      0.68732460	      0.00000000	    -32.11022888	     10.76894865	      5.52729806
      6.29000000	     12.79672543	     -5.93341740	      6.80299482	      2.49774244	      0.75310387	     -0.29318149	    -14.18347073	     10.83773835	     -3.72847245	     -7.19742714	     26.24229696	      8.35262074	      0.00000000	     16.93259207	     -2.74435765	      4.61842645	    -56.04719238	     26.57050131	      0.10722067	      0.00000000	    -32.31555397	     10.60952913	      6.11284151
      6.29500000	     12.81863932	     -5.97532933	      6.36029109	      2.50473567	      0.75259166	     -0.29304249	    -14.97598254	     10.80340301	     -3.49581748	     -6.91981044	     26.60448668	      8.81269667	      0.00000000	     17.38758146	     -2.79921203	      4.24240835	    -54.39001646	     26.56942741	     -0.50680440	      0.00000000	    -32.48235421	     10.49662965	      6.76538625
      6.30000000	     12.85909480	     -5.97824338	      5.90959196	      2.51173126	      0.75205359	     -0.29290040	    -15.78448136	     10.71652845	     -3.27146714	     -6.66252747	     27.01588509	      9.27853898	      0.00000000	     17.76037818	     -2.83044070	      3.85299390	    -52.62024341	     26.53121018	     -1.09965243	      0.00000000	    -32.67414129	     10.33728995	      7.37701961
      6.30500000	     12.93502985	     -5.95330949	      5.49119674	      2.51871542	      0.75149787	     -0.29280083	    -16.62996532	     10.59803252	     -3.07441315	     -6.40768367	     27.47632282	      9.79132876	      0.00000000	     18.04443681	     -2.83481562	      3.50485880	    -50.75066092	     26.44159119	     -1.62837631	      0.00000000	    -32.90613019	     10.16572333	      7.93559855
      6.31000000	     12.95841531	     -5.98530083	      5.05344315	      2.52568622	      0.75082857	     -0.29267043	    -17.39026509	     10.52138953	     -2.89074299	     -6.19742469	     27.86013404	     10.21443743	      0.00000000	     18.35577463	     -2.92012799	      3.12551676	    -48.81496849	     26.37069704	     -2.14249539	      0.00000000	    -33.08613302	     10.03440858	      8.53866119
      6.31500000	     12.98729485	     -5.99998487	      4.63292810	      2.53265673	      0.75012024	     -0.29254991	    -18.15244839	     10.42488448	     -2.70872929	     -5.99626828	     28.27675066	     10.62149905	      0.00000000	     18.60739246	     -2.98911145	      2.78122175	    -46.78718952	     26.27594997	     -2.54965931	      0.00000000	    -33.27135771	      9.88782955	      9.09722815
      6.32000000	     13.01879842	     -6.02012254	      4.22373994	      2.53962340	      0.74936891	     -0.29242771	    -18.90456974	     10.32832736	     -2.54276692	     -5.81832876	     28.68793262	     11.02161531	      0.00000000	     18.80784505	     -3.07283728	      2.44729658	    -44.68009243	     26.17063005	     -2.86458933	      0.00000000	    -33.46105938	      9.74201966	      9.63859492
      6.32500000	     13.05068401	     -6.04118637	      3.83780640	      2.54659387	      0.74857306	     -0.29234502	    -19.64919187	     10.22934633	     -2.40126188	     -5.65518076	     29.09613787	     11.41315749	      0.00000000	     18.96147891	     -3.15641125	      2.13728065	    -42.50388953	     26.06556525	     -3.05868133	      0.00000000	    -33.65211147	      9.61022154	     10.15680295
      6.33000000	     13.06895291	     -6.07424128	      3.46794638	      2.55358072	      0.74772007	     -0.29225213	    -20.36863187	     10.14207677	     -2.28299316	     -5.51162541	     29.49061357	     11.78349233	      0.00000000	     19.08330414	     -3.25679684	      1.84640342	    -40.26783897	     25.96633936	     -3.12458344	      0.00000000	    -33.82305020	      9.48550960	     10.65265933
      6.33500000	     13.08179310	     -6.11373336	      3.11707048	      2.56058997	      0.74682307	     -0.29217273	    -21.07293023	     10.05992410	     -2.18600166	     -5.38897564	     29.87476148	     12.14695752	      0.00000000	     19.16316655	     -3.36376894	      1.57342539	    -37.98060894	     25.87565207	     -3.05390834	      0.00000000	    -33.98380572	      9.37006438	     11.12305302
      6.34000000	     13.14247245	     -6.15353571	      2.82177839	      2.56764279	      0.74592129	     -0.29214500	    -21.83178620	      9.98815420	     -2.17457370	     -5.26181374	     30.23880729	     12.57065068	      0.00000000	     19.14401301	     -3.46034867	      1.35348871	    -35.64933286	     25.83868858	     -2.84564091	      0.00000000	    -34.18376782	      9.27713504	     11.53660557
      6.34500000	     13.03436967	     -6.20662129	      2.49585387	      2.57476127	      0.74484230	     -0.29206953	    -22.39026389	      9.91718745	     -2.09255995	     -5.18115584	     30.56229525	     12.83651707	      0.00000000	     19.26621257	     -3.57131851	      1.11673016	    -33.30994273	     25.75556053	     -2.53692403	      0.00000000	    -34.18324351	      9.17342392	     11.94615998
